# xmcd CD database file
#
# Track frame offsets:
#	150
#	11945
#	28287
#	41367
#	52585
#	63720
#	75555
#	86475
#	99672
#	110670
#	124382
#	138317
#	150680
#	160972
#	171035
#	184502
#	197320
#	220170
#	253592
#	280195
#	292887
#	305730
#	318737
#
# Disc length: 4424 seconds
#
# Revision: 4
# Processed by: cddbd v1.5.2PL0 Copyright (c) Steve Scherf et al.
# Submitted via: CDex 1.51
#
DISCID=45114617
DTITLE=Various Artist - The Great Tomato Blues Package [Disc 2]
DYEAR=1989
DGENRE=Blues
TTITLE0=Ike and Tina Turner - Poor Fool
TTITLE1=B.B. King - The Other Night Blues
TTITLE2=Brownie Mcghee - The Blues had a Baby
TTITLE3=Bo Diddley - Bo Diddley
TTITLE4=Little Richard - Lucille
TTITLE5=Etta James - I'd Rather Go Blind
TTITLE6=Wilbert Harrison - Kansas City
TTITLE7=Muddy Waters - Mannish Boy
TTITLE8=Jimmy Reed - Take Out Some Insurance
TTITLE9=Koko Taylor - Wang Dang Doodle
TTITLE10=Chuck Berry - In the Wee Wee Hours
TTITLE11=Fats Domino - Blue Monday
TTITLE12=Don Garner and Dee Dee Ford - I Need Your Lovin'
TTITLE13=Irma Thomas - Wish Someone Would Care
TTITLE14=Percy Sledge - When a Man Needs a Woman
TTITLE15=Carl Perkins - Honey Don't
TTITLE16=Jerry Lee Lewis - Whole Lotta Shakin' Goin' On
TTITLE17=John Lee Hooker - Tupelo
TTITLE18=Albert King - Angel of Mercy
TTITLE19=Rocky Hill and Johnny Winter - Bad Girl Blues
TTITLE20=Townes Van Zandt - Nothin'
TTITLE21=Robert Cray - Too Many Cooks
TTITLE22=Leadbelly - Midnight Special
EXTD=YEAR: 1989
EXTT0=
EXTT1=
EXTT2=
EXTT3=
EXTT4=
EXTT5=
EXTT6=
EXTT7=
EXTT8=
EXTT9=
EXTT10=
EXTT11=
EXTT12=
EXTT13=
EXTT14=
EXTT15=
EXTT16=
EXTT17=
EXTT18=
EXTT19=
EXTT20=
EXTT21=
EXTT22=
PLAYORDER=
